name ./resultDataOpenSim/trcMotMarkerGrf/sub06/grf-02-01.mot
datacolumns 19
datarows 27
range 1.01600000 1.12000000
endheader

                time	     ground_force_vx	     ground_force_vy	     ground_force_vz	     ground_force_px	     ground_force_py	     ground_force_pz	   l_ground_force_vx	   l_ground_force_vy	   l_ground_force_vz	   l_ground_force_px	   l_ground_force_py	   l_ground_force_pz	     ground_torque_x	     ground_torque_y	     ground_torque_z	   l_ground_torque_x	   l_ground_torque_y	   l_ground_torque_z	
          1.01600000	          0.00000000	          0.00000000	          0.00000000	          0.00000000	          0.00000000	          0.00000000	        123.78314856	        743.74321394	         41.74853144	          0.09705106	         -0.02500000	         -0.05103776	          0.00000000	          0.00000000	          0.00000000	          0.00000000	         -2.47978058	          0.00000000	
          1.02000000	          0.00000000	          0.00000000	          0.00000000	          0.00000000	          0.00000000	          0.00000000	        132.02884898	        755.82074442	         41.91616372	          0.09789107	         -0.02500000	         -0.05071661	          0.00000000	          0.00000000	          0.00000000	          0.00000000	         -2.59843602	          0.00000000	
          1.02400000	          0.00000000	          0.00000000	          0.00000000	          0.00000000	          0.00000000	          0.00000000	        140.25795665	        765.86470141	         41.70472694	          0.09882499	         -0.02500000	         -0.05033526	          0.00000000	          0.00000000	          0.00000000	          0.00000000	         -2.71758071	          0.00000000	
          1.02800000	          0.00000000	          0.00000000	          0.00000000	          0.00000000	          0.00000000	          0.00000000	        148.43563933	        773.99790157	         41.16135380	          0.09980808	         -0.02500000	         -0.04991136	          0.00000000	          0.00000000	          0.00000000	          0.00000000	         -2.83119702	          0.00000000	
          1.03200000	          0.00000000	          0.00000000	          0.00000000	          0.00000000	          0.00000000	          0.00000000	        156.51813897	        780.27825320	         40.34276082	          0.10077220	         -0.02500000	         -0.04947499	          0.00000000	          0.00000000	          0.00000000	          0.00000000	         -2.93431621	          0.00000000	
          1.03600000	          0.00000000	          0.00000000	          0.00000000	          0.00000000	          0.00000000	          0.00000000	        164.43831530	        784.60780622	         39.29683307	          0.10165347	         -0.02500000	         -0.04905865	          0.00000000	          0.00000000	          0.00000000	          0.00000000	         -3.02320657	          0.00000000	
          1.04000000	          0.00000000	          0.00000000	          0.00000000	          0.00000000	          0.00000000	          0.00000000	        172.10773356	        786.77742839	         38.05772474	          0.10242348	         -0.02500000	         -0.04868351	          0.00000000	          0.00000000	          0.00000000	          0.00000000	         -3.09514774	          0.00000000	
          1.04400000	          0.00000000	          0.00000000	          0.00000000	          0.00000000	          0.00000000	          0.00000000	        179.42608317	        786.58717590	         36.64983547	          0.10309721	         -0.02500000	         -0.04835852	          0.00000000	          0.00000000	          0.00000000	          0.00000000	         -3.14802580	          0.00000000	
          1.04800000	          0.00000000	          0.00000000	          0.00000000	          0.00000000	          0.00000000	          0.00000000	        186.29784502	        783.92166184	         35.09164659	          0.10371339	         -0.02500000	         -0.04808424	          0.00000000	          0.00000000	          0.00000000	          0.00000000	         -3.18003633	          0.00000000	
          1.05200000	          0.00000000	          0.00000000	          0.00000000	          0.00000000	          0.00000000	          0.00000000	        192.64588977	        778.71838927	         33.40349716	          0.10431474	         -0.02500000	         -0.04784712	          0.00000000	          0.00000000	          0.00000000	          0.00000000	         -3.18965347	          0.00000000	
          1.05600000	          0.00000000	          0.00000000	          0.00000000	          0.00000000	          0.00000000	          0.00000000	        198.41403165	        770.88400162	         31.61791854	          0.10493280	         -0.02500000	         -0.04762499	          0.00000000	          0.00000000	          0.00000000	          0.00000000	         -3.17581919	          0.00000000	
          1.06000000	          0.00000000	          0.00000000	          0.00000000	          0.00000000	          0.00000000	          0.00000000	        203.55848132	        760.25820825	         29.77412223	          0.10558679	         -0.02500000	         -0.04740327	          0.00000000	          0.00000000	          0.00000000	          0.00000000	         -3.13817865	          0.00000000	
          1.06400000	          0.00000000	          0.00000000	          0.00000000	          0.00000000	          0.00000000	          0.00000000	        208.02137551	        746.63017214	         27.88945609	          0.10628828	         -0.02500000	         -0.04717248	          0.00000000	          0.00000000	          0.00000000	          0.00000000	         -3.07715015	          0.00000000	
          1.06800000	          0.00000000	          0.00000000	          0.00000000	          0.00000000	          0.00000000	          0.00000000	        211.69321615	        729.73746299	         25.93711943	          0.10702930	         -0.02500000	         -0.04691856	          0.00000000	          0.00000000	          0.00000000	          0.00000000	         -2.99366265	          0.00000000	
          1.07200000	         -0.83298821	         13.79432530	          2.77938080	          0.72863079	          0.00000000	          0.04576445	        214.38990909	        709.23938476	         23.86577816	          0.10777493	         -0.02500000	         -0.04663290	          0.00000000	          0.44526645	          0.00000000	          0.00000000	         -2.88861921	          0.00000000	
          1.07600000	         -7.84757675	        137.90368379	         11.68631330	          0.73406411	          0.00000000	          0.04453418	        215.84753396	        684.72607246	         21.64460204	          0.10848797	         -0.02500000	         -0.04632455	          0.00000000	          0.43983522	          0.00000000	          0.00000000	         -2.76248189	          0.00000000	
          1.08000000	        -16.15344247	        252.49174873	         20.48809010	          0.73884450	          0.00000000	          0.04353323	        215.73389011	        655.78179030	         19.27768314	          0.10916663	         -0.02500000	         -0.04601624	          0.00000000	          0.39866045	          0.00000000	          0.00000000	         -2.61543056	          0.00000000	
          1.08400000	        -27.04508652	        348.75901693	         28.64105462	          0.74338759	          0.00000000	          0.04286240	        213.69841293	        622.05275924	         16.78299762	          0.10985221	         -0.02500000	         -0.04572150	          0.00000000	          0.30203907	          0.00000000	          0.00000000	         -2.44812227	          0.00000000	
          1.08800000	        -41.42636120	        422.78819764	         35.17849699	          0.74740819	          0.00000000	          0.04283021	        209.42644844	        583.30937593	         14.17955797	          0.11060306	         -0.02500000	         -0.04544605	          0.00000000	          0.14554525	          0.00000000	          0.00000000	         -2.26258624	          0.00000000	
          1.09200000	        -59.27875283	        477.31412371	         39.09340898	          0.75089596	          0.00000000	          0.04350951	        202.62334465	        539.56627650	         11.48621958	          0.11147375	         -0.02500000	         -0.04519670	          0.00000000	         -0.05543949	          0.00000000	          0.00000000	         -2.06270602	          0.00000000	
          1.09600000	        -79.78818772	        519.30597408	         39.79250154	          0.75462236	          0.00000000	          0.04459856	        192.96870781	        491.23022563	          8.71790833	          0.11251530	         -0.02500000	         -0.04496286	          0.00000000	         -0.26679928	          0.00000000	          0.00000000	         -1.85396203	          0.00000000	
          1.10000000	       -101.87661581	        555.11099857	         37.23473538	          0.75948955	          0.00000000	          0.04576921	        180.17065676	        439.13943360	          5.90223970	          0.11375370	         -0.02500000	         -0.04472808	          0.00000000	         -0.44302051	          0.00000000	          0.00000000	         -1.64242597	          0.00000000	
          1.10400000	       -124.14719093	        587.60611702	         31.82011427	          0.76527983	          0.00000000	          0.04698724	        164.14280281	        384.52476397	          3.12864656	          0.11522788	         -0.02500000	         -0.04452009	          0.00000000	         -0.53921370	          0.00000000	          0.00000000	         -1.43347010	          0.00000000	
          1.10800000	       -144.64827962	        617.18850900	         24.27147780	          0.77075318	          0.00000000	          0.04831452	        145.19178212	        329.02804221	          0.57230213	          0.11701024	         -0.02500000	         -0.04435509	          0.00000000	         -0.52497632	          0.00000000	          0.00000000	         -1.23102646	          0.00000000	
          1.11200000	       -161.63479317	        644.10051822	         15.49505133	          0.77511487	          0.00000000	          0.04964689	        124.10247409	        274.67905302	         -1.56881943	          0.11921056	         -0.02500000	         -0.04418232	          0.00000000	         -0.39609866	          0.00000000	          0.00000000	         -1.03791577	          0.00000000	
          1.11600000	       -174.72626604	        669.20783634	          6.40610234	          0.77873137	          0.00000000	          0.05079033	        102.08105024	        223.63696718	         -3.16758071	          0.12186993	         -0.02500000	         -0.04394203	          0.00000000	         -0.17922524	          0.00000000	          0.00000000	         -0.85686769	          0.00000000	
          1.12000000	       -184.80559588	        693.35065907	         -2.13984638	          0.78244094	          0.00000000	          0.05162977	         80.57105701	        177.74743130	         -4.19204790	          0.12489584	         -0.02500000	         -0.04359236	          0.00000000	          0.07343947	          0.00000000	          0.00000000	         -0.69131239	          0.00000000	
